<svg id="Capa_1" data-name="Capa 1" xmlns="http://www.w3.org/2000/svg" viewBox="0 0 778.21 778.21"><defs><style>.cls-1{fill:#3c7776;}.cls-2{fill:#fff;}</style></defs><title>windStart</title><path d="M155.82,460.35c-12.92,0-12.94,20.08,0,20.08S168.76,460.35,155.82,460.35Z" transform="translate(-12.67 -13.34)"/><circle class="cls-1" cx="389.11" cy="389.11" r="389.11"/><path class="cls-2" d="M470.39,555a10,10,0,0,0,0,20.08,57.35,57.35,0,1,0,0-114.7H189.68a10,10,0,0,0,0,20.08H470.39a37.27,37.27,0,1,1,0,74.54Z" transform="translate(-12.67 -13.34)"/><path class="cls-2" d="M574.09,218.18a72.49,72.49,0,0,0-72.41,72.41,10,10,0,1,0,20.08,0,52.33,52.33,0,1,1,52.32,52.32H144.53a10,10,0,0,0,0,20.08H574.09a72.41,72.41,0,0,0,0-144.81Z" transform="translate(-12.67 -13.34)"/><path class="cls-2" d="M553.39,402.45H167.11a10,10,0,1,0,0,20.07H553.39a73.1,73.1,0,0,1,73,73,10,10,0,1,0,20.08,0A93.2,93.2,0,0,0,553.39,402.45Z" transform="translate(-12.67 -13.34)"/></svg>